<svg xmlns="http://www.w3.org/2000/svg" width="800" height="520" viewBox="0 0 800 520" fill="none">
<rect width="800" height="520" rx="36" fill="#F8FAFC"/>
<circle cx="174" cy="106" r="56" fill="#DBEAFE"/>
<rect x="121" y="135" width="258" height="243" rx="24" fill="#0F172A"/>
<rect x="155" y="169" width="191" height="26" rx="13" fill="#7DD3FC"/>
<rect x="155" y="217" width="191" height="18" rx="9" fill="#E0F2FE"/>
<rect x="155" y="252" width="146" height="18" rx="9" fill="#E0F2FE"/>
<rect x="155" y="309" width="104" height="34" rx="17" fill="#38BDF8"/>
<rect x="423" y="111" width="226" height="286" rx="32" fill="#E0F2FE"/>
<path d="M470 165H602C614.15 165 624 174.85 624 187V314C624 326.15 614.15 336 602 336H470C457.85 336 448 326.15 448 314V187C448 174.85 457.85 165 470 165Z" fill="white"/>
<path d="M454 189L536 250L618 189" stroke="#38BDF8" stroke-width="10" stroke-linecap="round" stroke-linejoin="round"/>
<path d="M454 311L513 258" stroke="#C7D2FE" stroke-width="10" stroke-linecap="round"/>
<path d="M618 311L559 258" stroke="#C7D2FE" stroke-width="10" stroke-linecap="round"/>
</svg>