<svg xmlns="http://www.w3.org/2000/svg" width="800" height="520" viewBox="0 0 800 520" fill="none">
<rect width="800" height="520" rx="36" fill="#ECFEFF"/>
<rect x="122" y="117" width="268" height="178" rx="24" transform="rotate(-8 122 117)" fill="#0F172A"/>
<rect x="153" y="147" width="120" height="22" rx="10" transform="rotate(-8 153 147)" fill="#67E8F9"/>
<rect x="153" y="185" width="190" height="16" rx="8" transform="rotate(-8 153 185)" fill="#CFFAFE"/>
<rect x="153" y="215" width="170" height="16" rx="8" transform="rotate(-8 153 215)" fill="#CFFAFE"/>
<circle cx="160" cy="269" r="16" fill="#22C55E"/>
<rect x="349" y="164" width="320" height="214" rx="28" fill="#FFFFFF" stroke="#BAE6FD" stroke-width="10"/>
<rect x="390" y="205" width="151" height="20" rx="10" fill="#38BDF8"/>
<rect x="390" y="241" width="228" height="16" rx="8" fill="#D1FAE5"/>
<rect x="390" y="272" width="186" height="16" rx="8" fill="#DBEAFE"/>
<rect x="390" y="326" width="160" height="28" rx="14" fill="#0F172A"/>
<circle cx="610" cy="331" r="50" fill="#0F172A"/>
<path d="M590 331L603 344L631 316" stroke="#67E8F9" stroke-width="12" stroke-linecap="round" stroke-linejoin="round"/>
</svg>